# MagicaVoxel @ Ephtracy

# group
o 

# material
mtllib Magazine.mtl
usemtl palette

# normals
vn -1 0 0
vn 1 0 0
vn 0 0 1
vn 0 0 -1
vn 0 -1 0
vn 0 1 0

# texcoords
vt 0.798828 0.5
vt 0.865234 0.5
vt 0.884766 0.5

# verts
v 1.2 1.2 -1.2
v 1.2 1.2 -2
v 1.2 1.3 -1.3
v 1.2 1.3 -1.9
v 1.2 3.9 -1.3
v 1.2 3.9 -1.9
v 1.2 4 -1.2
v 1.2 4 -2
v 2 1.2 -1.2
v 2 1.2 -2
v 2 1.3 -1.3
v 2 1.3 -1.9
v 2 3.9 -1.3
v 2 3.9 -1.9
v 2 4 -1.2
v 2 4 -2
v 1.2 1.2 -1.2
v 1.2 4 -1.2
v 1.3 1.3 -1.2
v 1.3 3.9 -1.2
v 1.9 1.3 -1.2
v 1.9 3.9 -1.2
v 2 1.2 -1.2
v 2 4 -1.2
v 1.2 1.2 -2
v 1.2 4 -2
v 1.3 1.3 -2
v 1.3 3.9 -2
v 1.9 1.3 -2
v 1.9 3.9 -2
v 2 1.2 -2
v 2 4 -2
v 1.2 1.2 -1.2
v 2 1.2 -1.2
v 1.4 1.2 -1.3
v 1.9 1.2 -1.3
v 1.4 1.2 -1.9
v 1.9 1.2 -1.9
v 1.2 1.2 -2
v 2 1.2 -2
v 1.2 4 -1.2
v 2 4 -1.2
v 1.3 4 -1.3
v 1.9 4 -1.3
v 1.3 4 -1.5
v 1.9 4 -1.5
v 1.3 4 -1.7
v 1.9 4 -1.7
v 1.3 4 -1.9
v 1.9 4 -1.9
v 1.2 4 -2
v 2 4 -2

# faces
f 3/3/1 2/3/1 1/3/1
f 4/3/1 2/3/1 3/3/1
f 5/3/1 3/3/1 1/3/1
f 5/1/1 4/1/1 3/1/1
f 6/3/1 2/3/1 4/3/1
f 6/1/1 4/1/1 5/1/1
f 7/3/1 5/3/1 1/3/1
f 7/3/1 6/3/1 5/3/1
f 8/3/1 2/3/1 6/3/1
f 8/3/1 6/3/1 7/3/1
f 9/3/2 10/3/2 11/3/2
f 11/3/2 10/3/2 12/3/2
f 9/3/2 11/3/2 13/3/2
f 11/1/2 12/1/2 13/1/2
f 12/3/2 10/3/2 14/3/2
f 13/1/2 12/1/2 14/1/2
f 9/3/2 13/3/2 15/3/2
f 13/3/2 14/3/2 15/3/2
f 14/3/2 10/3/2 16/3/2
f 15/3/2 14/3/2 16/3/2
f 19/3/3 18/3/3 17/3/3
f 20/3/3 18/3/3 19/3/3
f 21/3/3 19/3/3 17/3/3
f 21/1/3 20/1/3 19/1/3
f 22/3/3 18/3/3 20/3/3
f 22/1/3 20/1/3 21/1/3
f 23/3/3 21/3/3 17/3/3
f 23/3/3 22/3/3 21/3/3
f 24/3/3 18/3/3 22/3/3
f 24/3/3 22/3/3 23/3/3
f 25/3/4 26/3/4 27/3/4
f 27/3/4 26/3/4 28/3/4
f 25/3/4 27/3/4 29/3/4
f 27/1/4 28/1/4 29/1/4
f 28/3/4 26/3/4 30/3/4
f 29/1/4 28/1/4 30/1/4
f 25/3/4 29/3/4 31/3/4
f 29/3/4 30/3/4 31/3/4
f 30/3/4 26/3/4 32/3/4
f 31/3/4 30/3/4 32/3/4
f 35/3/5 34/3/5 33/3/5
f 36/3/5 34/3/5 35/3/5
f 37/3/5 35/3/5 33/3/5
f 37/1/5 36/1/5 35/1/5
f 38/3/5 34/3/5 36/3/5
f 38/1/5 36/1/5 37/1/5
f 39/3/5 37/3/5 33/3/5
f 39/3/5 38/3/5 37/3/5
f 40/3/5 34/3/5 38/3/5
f 40/3/5 38/3/5 39/3/5
f 41/3/6 42/3/6 43/3/6
f 43/3/6 42/3/6 44/3/6
f 41/3/6 43/3/6 45/3/6
f 43/1/6 44/1/6 45/1/6
f 44/3/6 42/3/6 46/3/6
f 45/1/6 44/1/6 46/1/6
f 41/3/6 45/3/6 47/3/6
f 45/3/6 46/3/6 47/3/6
f 46/3/6 42/3/6 48/3/6
f 47/3/6 46/3/6 48/3/6
f 41/3/6 47/3/6 49/3/6
f 47/1/6 48/1/6 49/1/6
f 48/3/6 42/3/6 50/3/6
f 49/1/6 48/1/6 50/1/6
f 41/3/6 49/3/6 51/3/6
f 49/3/6 50/3/6 51/3/6
f 50/3/6 42/3/6 52/3/6
f 51/3/6 50/3/6 52/3/6
