# MagicaVoxel @ Ephtracy

# group
o 

# material
mtllib Optika.mtl
usemtl palette

# normals
vn -1 0 0
vn 1 0 0
vn 0 0 1
vn 0 0 -1
vn 0 -1 0
vn 0 1 0

# texcoords
vt 0.798828 0.5
vt 0.865234 0.5
vt 0.884766 0.5

# verts
v 1.6 3.6 -1.2
v 1.6 3.6 -2
v 1.6 3.8 -1.2
v 1.6 3.8 -2
v 1.6 3.9 -1.3
v 1.6 3.9 -1.9
v 1.6 4 -1.2
v 1.6 4 -1.3
v 1.6 4 -1.9
v 1.6 4 -2
v 2 3.6 -1.2
v 2 3.6 -2
v 2 3.8 -1.2
v 2 3.8 -2
v 2 3.9 -1.3
v 2 3.9 -1.9
v 2 4 -1.2
v 2 4 -1.3
v 2 4 -1.9
v 2 4 -2
v 1.6 3.6 -1.2
v 1.6 3.8 -1.2
v 1.6 4 -1.2
v 2 3.6 -1.2
v 2 3.8 -1.2
v 2 4 -1.2
v 1.6 3.9 -1.9
v 1.6 4 -1.9
v 2 3.9 -1.9
v 2 4 -1.9
v 1.6 3.9 -1.3
v 1.6 4 -1.3
v 2 3.9 -1.3
v 2 4 -1.3
v 1.6 3.6 -2
v 1.6 3.8 -2
v 1.6 4 -2
v 2 3.6 -2
v 2 3.8 -2
v 2 4 -2
v 1.6 3.6 -1.2
v 2 3.6 -1.2
v 1.6 3.6 -2
v 2 3.6 -2
v 1.6 3.9 -1.3
v 2 3.9 -1.3
v 1.6 3.9 -1.9
v 2 3.9 -1.9
v 1.6 4 -1.2
v 2 4 -1.2
v 1.6 4 -1.3
v 2 4 -1.3
v 1.6 4 -1.9
v 2 4 -1.9
v 1.6 4 -2
v 2 4 -2

# faces
f 3/1/1 2/1/1 1/1/1
f 4/1/1 2/1/1 3/1/1
f 5/3/1 4/3/1 3/3/1
f 6/3/1 4/3/1 5/3/1
f 7/3/1 5/3/1 3/3/1
f 8/3/1 5/3/1 7/3/1
f 9/3/1 4/3/1 6/3/1
f 10/3/1 4/3/1 9/3/1
f 11/1/2 12/1/2 13/1/2
f 13/1/2 12/1/2 14/1/2
f 13/3/2 14/3/2 15/3/2
f 15/3/2 14/3/2 16/3/2
f 13/3/2 15/3/2 17/3/2
f 17/3/2 15/3/2 18/3/2
f 16/3/2 14/3/2 19/3/2
f 19/3/2 14/3/2 20/3/2
f 24/1/3 22/1/3 21/1/3
f 25/3/3 23/3/3 22/3/3
f 25/1/3 22/1/3 24/1/3
f 26/3/3 23/3/3 25/3/3
f 29/3/3 28/3/3 27/3/3
f 30/3/3 28/3/3 29/3/3
f 31/3/4 32/3/4 33/3/4
f 33/3/4 32/3/4 34/3/4
f 35/1/4 36/1/4 38/1/4
f 36/3/4 37/3/4 39/3/4
f 38/1/4 36/1/4 39/1/4
f 39/3/4 37/3/4 40/3/4
f 43/1/5 42/1/5 41/1/5
f 44/1/5 42/1/5 43/1/5
f 45/3/6 46/3/6 47/3/6
f 47/3/6 46/3/6 48/3/6
f 49/3/6 50/3/6 51/3/6
f 51/3/6 50/3/6 52/3/6
f 53/3/6 54/3/6 55/3/6
f 55/3/6 54/3/6 56/3/6
