# MagicaVoxel @ Ephtracy

# group
o 

# material
mtllib Head.mtl
usemtl palette

# normals
vn -1 0 0
vn 1 0 0
vn 0 0 1
vn 0 0 -1
vn 0 -1 0
vn 0 1 0

# texcoords
vt 0.0371094 0.5
vt 0.0878906 0.5
vt 0.955078 0.5
vt 0.958984 0.5
vt 0.994141 0.5

# verts
v -2 0 1.1
v -2 0 -1.1
v -2 0.4 1.1
v -2 0.4 1
v -2 0.6 1.1
v -2 0.6 1
v -2 1.2 1.1
v -2 1.2 1
v -2 1.3 1.1
v -2 1.3 1
v -2 2.2 0
v -2 2.2 -0.1
v -2 2.3 0
v -2 2.3 -0.1
v -2 2.3 -0.3
v -2 2.3 -0.4
v -2 2.4 -0.1
v -2 2.4 -0.2
v -2 2.4 -0.3
v -2 2.4 -0.4
v -2 2.5 -0.1
v -2 2.5 -0.2
v -2 2.5 -0.5
v -2 2.5 -0.6
v -2 2.6 -0.2
v -2 2.6 -0.3
v -2 2.6 -0.5
v -2 2.6 -0.6
v -2 2.7 -0.2
v -2 2.7 -0.3
v -2 2.7 -0.6
v -2 2.7 -0.7
v -2 2.8 -0.2
v -2 2.8 -0.3
v -2 2.8 -0.6
v -2 2.8 -0.7
v -2 2.9 -0.2
v -2 2.9 -0.3
v -2 3 -0.2
v -2 3 -0.3
v -2 3 -0.7
v -2 3 -0.8
v -2 3.1 -0.2
v -2 3.1 -0.3
v -2 3.1 -0.7
v -2 3.1 -0.8
v -2 3.2 -0.3
v -2 3.2 -0.4
v -2 3.2 -0.6
v -2 3.2 -0.7
v -2 3.3 -0.3
v -2 3.3 -0.4
v -2 3.3 -0.5
v -2 3.3 -0.6
v -2 3.3 -0.7
v -2 3.4 -0.5
v -2 3.4 -0.6
v -2 4 1.1
v -2 4 -1.1
v 2 0 1.1
v 2 0 -1.1
v 2 2.2 0.1
v 2 2.2 0
v 2 2.3 0.3
v 2 2.3 0.2
v 2 2.3 0.1
v 2 2.3 0
v 2 2.3 -0.1
v 2 2.3 -0.2
v 2 2.4 0.3
v 2 2.4 0.2
v 2 2.4 -0.1
v 2 2.4 -0.2
v 2 2.5 -0.3
v 2 2.5 -0.4
v 2 2.6 -0.3
v 2 2.6 -0.4
v 2 2.7 -0.5
v 2 2.7 -0.6
v 2 2.8 0.1
v 2 2.8 0
v 2 2.8 -0.5
v 2 2.8 -0.6
v 2 2.9 0.1
v 2 2.9 0
v 2 2.9 -0.6
v 2 2.9 -0.7
v 2 3 0
v 2 3 -0.1
v 2 3 -0.6
v 2 3 -0.7
v 2 3.1 0
v 2 3.1 -0.1
v 2 3.2 0.1
v 2 3.2 0
v 2 3.2 -0.7
v 2 3.2 -0.8
v 2 3.3 0.1
v 2 3.3 0
v 2 3.3 -0.7
v 2 3.3 -0.8
v 2 3.4 -0.1
v 2 3.4 -0.2
v 2 3.5 -0.1
v 2 3.5 -0.2
v 2 3.5 -0.6
v 2 3.5 -0.7
v 2 3.6 -0.4
v 2 3.6 -0.5
v 2 3.6 -0.6
v 2 3.6 -0.7
v 2 3.7 -0.4
v 2 3.7 -0.5
v 2 4 1.1
v 2 4 -1.1
v -2 0 1.1
v -2 0.4 1.1
v -2 0.6 1.1
v -2 1.2 1.1
v -2 1.3 1.1
v -2 4 1.1
v -1.9 0 1.1
v -1.9 0.1 1.1
v -1.9 0.4 1.1
v -1.9 0.6 1.1
v -1.9 1.2 1.1
v -1.9 1.3 1.1
v -1.8 0 1.1
v -1.8 0.1 1.1
v -1.8 0.9 1.1
v -1.8 1 1.1
v -1.8 3.5 1.1
v -1.8 3.6 1.1
v -1.7 0.9 1.1
v -1.7 1 1.1
v -1.7 3.5 1.1
v -1.7 3.6 1.1
v -1.7 3.7 1.1
v -1.6 0.5 1.1
v -1.6 0.6 1.1
v -1.6 3.5 1.1
v -1.6 3.6 1.1
v -1.6 3.7 1.1
v -1.6 3.8 1.1
v -1.5 0.2 1.1
v -1.5 0.3 1.1
v -1.5 0.5 1.1
v -1.5 0.6 1.1
v -1.5 2.8 1.1
v -1.5 3.5 1.1
v -1.5 3.7 1.1
v -1.5 3.8 1.1
v -1.4 0.2 1.1
v -1.4 0.3 1.1
v -1.4 2.9 1.1
v -1.4 3.5 1.1
v -1.4 3.7 1.1
v -1.4 3.8 1.1
v -1.3 3.7 1.1
v -1.3 3.8 1.1
v -1.2 0.7 1.1
v -1.2 0.8 1.1
v -1.2 1 1.1
v -1.2 1.1 1.1
v -1.2 3.1 1.1
v -1.2 3.4 1.1
v -1.2 3.7 1.1
v -1.2 3.8 1.1
v -1.1 0.7 1.1
v -1.1 0.8 1.1
v -1.1 1 1.1
v -1.1 1.1 1.1
v -1.1 3.7 1.1
v -1.1 3.8 1.1
v -1 0 1.1
v -1 0.2 1.1
v -1 0.3 1.1
v -1 0.4 1.1
v -1 3.7 1.1
v -1 3.8 1.1
v -0.9 0 1.1
v -0.9 0.2 1.1
v -0.9 0.3 1.1
v -0.9 0.4 1.1
v -0.9 0.5 1.1
v -0.9 0.6 1.1
v -0.9 3.1 1.1
v -0.9 3.4 1.1
v -0.9 3.7 1.1
v -0.9 3.8 1.1
v -0.8 0.5 1.1
v -0.8 0.6 1.1
v -0.8 0.8 1.1
v -0.8 0.9 1.1
v -0.8 1.8 1.1
v -0.8 2 1.1
v -0.8 3.7 1.1
v -0.8 3.8 1.1
v -0.7 0.8 1.1
v -0.7 0.9 1.1
v -0.7 1 1.1
v -0.7 1.1 1.1
v -0.7 1.7 1.1
v -0.7 1.8 1.1
v -0.7 1.9 1.1
v -0.7 2 1.1
v -0.7 2.9 1.1
v -0.7 3.5 1.1
v -0.7 3.7 1.1
v -0.7 3.8 1.1
v -0.6 0.1 1.1
v -0.6 0.2 1.1
v -0.6 1 1.1
v -0.6 1.1 1.1
v -0.6 1.6 1.1
v -0.6 1.7 1.1
v -0.6 1.9 1.1
v -0.6 2.8 1.1
v -0.6 3.5 1.1
v -0.6 3.7 1.1
v -0.6 3.8 1.1
v -0.5 0.1 1.1
v -0.5 0.2 1.1
v -0.5 3.5 1.1
v -0.5 3.6 1.1
v -0.5 3.7 1.1
v -0.5 3.8 1.1
v -0.4 0.5 1.1
v -0.4 0.6 1.1
v -0.4 3.5 1.1
v -0.4 3.6 1.1
v -0.4 3.7 1.1
v -0.3 0.5 1.1
v -0.3 0.6 1.1
v -0.3 1 1.1
v -0.3 1.1 1.1
v -0.3 3.5 1.1
v -0.3 3.6 1.1
v -0.2 0.2 1.1
v -0.2 0.3 1.1
v -0.2 1 1.1
v -0.2 1.1 1.1
v -0.0999999 0.2 1.1
v -0.0999999 0.3 1.1
v 2.38419e-07 0.6 1.1
v 2.38419e-07 0.7 1.1
v 0.1 0.6 1.1
v 0.1 0.7 1.1
v 0.2 0 1.1
v 0.2 0.3 1.1
v 0.2 1.6 1.1
v 0.2 1.7 1.1
v 0.2 1.9 1.1
v 0.3 0 1.1
v 0.3 0.3 1.1
v 0.3 0.9 1.1
v 0.3 1 1.1
v 0.3 1.1 1.1
v 0.3 1.2 1.1
v 0.3 1.7 1.1
v 0.3 1.8 1.1
v 0.3 1.9 1.1
v 0.3 2 1.1
v 0.3 3.5 1.1
v 0.3 3.6 1.1
v 0.4 0.9 1.1
v 0.4 1 1.1
v 0.4 1.1 1.1
v 0.4 1.2 1.1
v 0.4 1.8 1.1
v 0.4 2 1.1
v 0.4 3.5 1.1
v 0.4 3.6 1.1
v 0.4 3.7 1.1
v 0.5 0.1 1.1
v 0.5 0.2 1.1
v 0.5 0.6 1.1
v 0.5 0.7 1.1
v 0.5 2.8 1.1
v 0.5 3.6 1.1
v 0.5 3.7 1.1
v 0.5 3.8 1.1
v 0.6 0.1 1.1
v 0.6 0.2 1.1
v 0.6 0.6 1.1
v 0.6 0.7 1.1
v 0.6 2.9 1.1
v 0.6 3.5 1.1
v 0.6 3.7 1.1
v 0.6 3.8 1.1
v 0.7 3.7 1.1
v 0.7 3.8 1.1
v 0.8 0.7 1.1
v 0.8 0.8 1.1
v 0.8 3.1 1.1
v 0.8 3.4 1.1
v 0.8 3.7 1.1
v 0.8 3.8 1.1
v 0.9 0.3 1.1
v 0.9 0.4 1.1
v 0.9 0.7 1.1
v 0.9 0.8 1.1
v 0.9 1 1.1
v 0.9 1.1 1.1
v 0.9 3.7 1.1
v 0.9 3.8 1.1
v 1 0.3 1.1
v 1 0.4 1.1
v 1 1 1.1
v 1 1.1 1.1
v 1 3.7 1.1
v 1 3.8 1.1
v 1.1 3.1 1.1
v 1.1 3.4 1.1
v 1.1 3.7 1.1
v 1.1 3.8 1.1
v 1.2 0.6 1.1
v 1.2 0.7 1.1
v 1.2 3.7 1.1
v 1.2 3.8 1.1
v 1.3 0 1.1
v 1.3 0.4 1.1
v 1.3 0.6 1.1
v 1.3 0.7 1.1
v 1.3 2.9 1.1
v 1.3 3.5 1.1
v 1.3 3.7 1.1
v 1.3 3.8 1.1
v 1.4 0 1.1
v 1.4 0.4 1.1
v 1.4 2.8 1.1
v 1.4 3.5 1.1
v 1.4 3.7 1.1
v 1.4 3.8 1.1
v 1.5 3.5 1.1
v 1.5 3.6 1.1
v 1.5 3.7 1.1
v 1.6 0.1 1.1
v 1.6 0.2 1.1
v 1.6 0.9 1.1
v 1.6 1 1.1
v 1.6 3.5 1.1
v 1.6 3.6 1.1
v 1.6 3.7 1.1
v 1.7 0.1 1.1
v 1.7 0.2 1.1
v 1.7 0.6 1.1
v 1.7 0.7 1.1
v 1.7 0.9 1.1
v 1.7 1 1.1
v 1.7 1.1 1.1
v 1.7 1.2 1.1
v 1.7 3.5 1.1
v 1.7 3.6 1.1
v 1.8 0.6 1.1
v 1.8 0.7 1.1
v 1.8 1.1 1.1
v 1.8 1.2 1.1
v 2 0 1.1
v 2 4 1.1
v -2 0 -1.1
v -2 4 -1.1
v 2 0 -1.1
v 2 4 -1.1
v -2 0 1.1
v -1.9 0 1.1
v -1.8 0 1.1
v -1 0 1.1
v -0.9 0 1.1
v 0.2 0 1.1
v 0.3 0 1.1
v 1.3 0 1.1
v 1.4 0 1.1
v 2 0 1.1
v -1.9 0 1
v -1.8 0 1
v -1 0 1
v -0.9 0 1
v 0.2 0 1
v 0.3 0 1
v 1.3 0 1
v 1.4 0 1
v -2 0 -1.1
v 2 0 -1.1
v -2 4 1.1
v 2 4 1.1
v -2 4 -1.1
v 2 4 -1.1

# faces
f 3/1/1 2/1/1 1/1/1
f 4/1/1 2/1/1 3/1/1
f 5/5/1 4/5/1 3/5/1
f 6/1/1 2/1/1 4/1/1
f 6/5/1 4/5/1 5/5/1
f 7/1/1 6/1/1 5/1/1
f 8/1/1 2/1/1 6/1/1
f 8/1/1 6/1/1 7/1/1
f 9/3/1 8/3/1 7/3/1
f 10/1/1 2/1/1 8/1/1
f 10/3/1 8/3/1 9/3/1
f 11/1/1 10/1/1 9/1/1
f 11/1/1 2/1/1 10/1/1
f 12/1/1 2/1/1 11/1/1
f 13/1/1 11/1/1 9/1/1
f 13/2/1 12/2/1 11/2/1
f 14/1/1 2/1/1 12/1/1
f 14/2/1 12/2/1 13/2/1
f 15/1/1 2/1/1 14/1/1
f 16/1/1 2/1/1 15/1/1
f 17/1/1 14/1/1 13/1/1
f 17/1/1 15/1/1 14/1/1
f 18/1/1 15/1/1 17/1/1
f 19/2/1 16/2/1 15/2/1
f 19/1/1 15/1/1 18/1/1
f 20/1/1 2/1/1 16/1/1
f 20/2/1 16/2/1 19/2/1
f 21/2/1 18/2/1 17/2/1
f 21/1/1 17/1/1 13/1/1
f 22/1/1 19/1/1 18/1/1
f 22/2/1 18/2/1 21/2/1
f 22/1/1 20/1/1 19/1/1
f 23/1/1 2/1/1 20/1/1
f 23/1/1 20/1/1 22/1/1
f 24/1/1 2/1/1 23/1/1
f 25/1/1 22/1/1 21/1/1
f 25/1/1 23/1/1 22/1/1
f 26/1/1 23/1/1 25/1/1
f 27/2/1 24/2/1 23/2/1
f 27/1/1 23/1/1 26/1/1
f 28/1/1 2/1/1 24/1/1
f 28/2/1 24/2/1 27/2/1
f 29/2/1 26/2/1 25/2/1
f 29/1/1 25/1/1 21/1/1
f 30/1/1 27/1/1 26/1/1
f 30/2/1 26/2/1 29/2/1
f 30/1/1 28/1/1 27/1/1
f 31/1/1 2/1/1 28/1/1
f 31/1/1 28/1/1 30/1/1
f 32/1/1 2/1/1 31/1/1
f 33/1/1 29/1/1 21/1/1
f 33/1/1 30/1/1 29/1/1
f 33/1/1 31/1/1 30/1/1
f 34/1/1 31/1/1 33/1/1
f 35/2/1 32/2/1 31/2/1
f 35/1/1 31/1/1 34/1/1
f 36/1/1 2/1/1 32/1/1
f 36/2/1 32/2/1 35/2/1
f 37/2/1 34/2/1 33/2/1
f 37/1/1 33/1/1 21/1/1
f 38/1/1 35/1/1 34/1/1
f 38/2/1 34/2/1 37/2/1
f 38/1/1 36/1/1 35/1/1
f 39/1/1 37/1/1 21/1/1
f 39/1/1 38/1/1 37/1/1
f 40/1/1 36/1/1 38/1/1
f 40/1/1 38/1/1 39/1/1
f 41/1/1 2/1/1 36/1/1
f 41/1/1 36/1/1 40/1/1
f 42/1/1 2/1/1 41/1/1
f 43/1/1 39/1/1 21/1/1
f 43/2/1 40/2/1 39/2/1
f 44/1/1 41/1/1 40/1/1
f 44/2/1 40/2/1 43/2/1
f 45/2/1 42/2/1 41/2/1
f 45/1/1 41/1/1 44/1/1
f 46/1/1 2/1/1 42/1/1
f 46/2/1 42/2/1 45/2/1
f 47/1/1 45/1/1 44/1/1
f 47/1/1 44/1/1 43/1/1
f 47/1/1 46/1/1 45/1/1
f 48/1/1 46/1/1 47/1/1
f 49/1/1 46/1/1 48/1/1
f 50/1/1 46/1/1 49/1/1
f 51/1/1 47/1/1 43/1/1
f 51/2/1 48/2/1 47/2/1
f 52/1/1 49/1/1 48/1/1
f 52/2/1 48/2/1 51/2/1
f 53/1/1 49/1/1 52/1/1
f 54/2/1 50/2/1 49/2/1
f 54/1/1 49/1/1 53/1/1
f 55/1/1 46/1/1 50/1/1
f 55/2/1 50/2/1 54/2/1
f 56/2/1 54/2/1 53/2/1
f 56/1/1 53/1/1 52/1/1
f 56/1/1 52/1/1 51/1/1
f 57/1/1 55/1/1 54/1/1
f 57/2/1 54/2/1 56/2/1
f 58/1/1 13/1/1 9/1/1
f 58/1/1 21/1/1 13/1/1
f 58/1/1 57/1/1 56/1/1
f 58/1/1 51/1/1 43/1/1
f 58/1/1 56/1/1 51/1/1
f 58/1/1 43/1/1 21/1/1
f 59/1/1 55/1/1 57/1/1
f 59/1/1 57/1/1 58/1/1
f 59/1/1 46/1/1 55/1/1
f 59/1/1 2/1/1 46/1/1
f 60/1/2 61/1/2 62/1/2
f 62/1/2 61/1/2 63/1/2
f 60/1/2 62/1/2 64/1/2
f 64/1/2 62/1/2 65/1/2
f 62/2/2 63/2/2 66/2/2
f 65/1/2 62/1/2 66/1/2
f 63/1/2 61/1/2 67/1/2
f 66/2/2 63/2/2 67/2/2
f 67/1/2 61/1/2 68/1/2
f 68/1/2 61/1/2 69/1/2
f 64/2/2 65/2/2 70/2/2
f 60/1/2 64/1/2 70/1/2
f 65/1/2 66/1/2 71/1/2
f 70/2/2 65/2/2 71/2/2
f 66/1/2 67/1/2 71/1/2
f 67/1/2 68/1/2 71/1/2
f 68/2/2 69/2/2 72/2/2
f 71/1/2 68/1/2 72/1/2
f 69/1/2 61/1/2 73/1/2
f 72/2/2 69/2/2 73/2/2
f 71/1/2 72/1/2 74/1/2
f 73/1/2 61/1/2 74/1/2
f 72/1/2 73/1/2 74/1/2
f 70/1/2 71/1/2 74/1/2
f 74/1/2 61/1/2 75/1/2
f 70/1/2 74/1/2 76/1/2
f 74/2/2 75/2/2 76/2/2
f 75/1/2 61/1/2 77/1/2
f 76/2/2 75/2/2 77/2/2
f 76/1/2 77/1/2 78/1/2
f 77/1/2 61/1/2 78/1/2
f 78/1/2 61/1/2 79/1/2
f 70/1/2 76/1/2 80/1/2
f 76/1/2 78/1/2 80/1/2
f 80/1/2 78/1/2 81/1/2
f 78/2/2 79/2/2 82/2/2
f 81/1/2 78/1/2 82/1/2
f 79/1/2 61/1/2 83/1/2
f 82/2/2 79/2/2 83/2/2
f 80/2/2 81/2/2 84/2/2
f 70/1/2 80/1/2 84/1/2
f 81/1/2 82/1/2 85/1/2
f 84/2/2 81/2/2 85/2/2
f 82/1/2 83/1/2 85/1/2
f 83/1/2 61/1/2 86/1/2
f 85/1/2 83/1/2 86/1/2
f 86/1/2 61/1/2 87/1/2
f 84/1/2 85/1/2 88/1/2
f 85/1/2 86/1/2 88/1/2
f 88/1/2 86/1/2 89/1/2
f 86/2/2 87/2/2 90/2/2
f 89/1/2 86/1/2 90/1/2
f 87/1/2 61/1/2 91/1/2
f 90/2/2 87/2/2 91/2/2
f 88/2/2 89/2/2 92/2/2
f 84/1/2 88/1/2 92/1/2
f 89/1/2 90/1/2 93/1/2
f 92/2/2 89/2/2 93/2/2
f 90/1/2 91/1/2 93/1/2
f 70/1/2 84/1/2 94/1/2
f 84/1/2 92/1/2 94/1/2
f 92/1/2 93/1/2 94/1/2
f 94/1/2 93/1/2 95/1/2
f 93/1/2 91/1/2 96/1/2
f 95/1/2 93/1/2 96/1/2
f 91/1/2 61/1/2 96/1/2
f 96/1/2 61/1/2 97/1/2
f 94/2/2 95/2/2 98/2/2
f 70/1/2 94/1/2 98/1/2
f 95/1/2 96/1/2 99/1/2
f 98/2/2 95/2/2 99/2/2
f 96/2/2 97/2/2 100/2/2
f 99/1/2 96/1/2 100/1/2
f 97/1/2 61/1/2 101/1/2
f 100/2/2 97/2/2 101/2/2
f 99/1/2 100/1/2 102/1/2
f 98/1/2 99/1/2 102/1/2
f 100/1/2 101/1/2 102/1/2
f 102/1/2 101/1/2 103/1/2
f 98/1/2 102/1/2 104/1/2
f 102/2/2 103/2/2 104/2/2
f 103/1/2 101/1/2 105/1/2
f 104/2/2 103/2/2 105/2/2
f 105/1/2 101/1/2 106/1/2
f 106/1/2 101/1/2 107/1/2
f 104/1/2 105/1/2 108/1/2
f 105/1/2 106/1/2 108/1/2
f 108/1/2 106/1/2 109/1/2
f 106/2/2 107/2/2 110/2/2
f 109/1/2 106/1/2 110/1/2
f 107/1/2 101/1/2 111/1/2
f 110/2/2 107/2/2 111/2/2
f 108/2/2 109/2/2 112/2/2
f 104/1/2 108/1/2 112/1/2
f 109/1/2 110/1/2 113/1/2
f 112/2/2 109/2/2 113/2/2
f 110/1/2 111/1/2 113/1/2
f 60/1/2 70/1/2 114/1/2
f 70/1/2 98/1/2 114/1/2
f 112/1/2 113/1/2 114/1/2
f 98/1/2 104/1/2 114/1/2
f 104/1/2 112/1/2 114/1/2
f 113/1/2 111/1/2 115/1/2
f 114/1/2 113/1/2 115/1/2
f 101/1/2 61/1/2 115/1/2
f 111/1/2 101/1/2 115/1/2
f 122/1/3 117/1/3 116/1/3
f 123/1/3 117/1/3 122/1/3
f 124/5/3 118/5/3 117/5/3
f 124/1/3 117/1/3 123/1/3
f 125/1/3 119/1/3 118/1/3
f 125/5/3 118/5/3 124/5/3
f 126/3/3 120/3/3 119/3/3
f 126/1/3 119/1/3 125/1/3
f 127/1/3 121/1/3 120/1/3
f 127/3/3 120/3/3 126/3/3
f 128/3/3 123/3/3 122/3/3
f 129/1/3 126/1/3 125/1/3
f 129/3/3 123/3/3 128/3/3
f 129/1/3 124/1/3 123/1/3
f 129/1/3 127/1/3 126/1/3
f 129/1/3 125/1/3 124/1/3
f 130/1/3 127/1/3 129/1/3
f 131/1/3 127/1/3 130/1/3
f 132/1/3 121/1/3 127/1/3
f 132/1/3 127/1/3 131/1/3
f 133/1/3 121/1/3 132/1/3
f 134/3/3 131/3/3 130/3/3
f 134/1/3 129/1/3 128/1/3
f 134/1/3 130/1/3 129/1/3
f 135/1/3 132/1/3 131/1/3
f 135/3/3 131/3/3 134/3/3
f 136/5/3 133/5/3 132/5/3
f 136/1/3 132/1/3 135/1/3
f 137/1/3 121/1/3 133/1/3
f 137/5/3 133/5/3 136/5/3
f 138/1/3 121/1/3 137/1/3
f 139/1/3 136/1/3 135/1/3
f 139/1/3 135/1/3 134/1/3
f 139/1/3 134/1/3 128/1/3
f 139/1/3 137/1/3 136/1/3
f 140/1/3 137/1/3 139/1/3
f 141/1/3 137/1/3 140/1/3
f 142/5/3 138/5/3 137/5/3
f 142/1/3 137/1/3 141/1/3
f 143/1/3 121/1/3 138/1/3
f 143/5/3 138/5/3 142/5/3
f 144/1/3 121/1/3 143/1/3
f 145/1/3 139/1/3 128/1/3
f 146/1/3 139/1/3 145/1/3
f 147/3/3 140/3/3 139/3/3
f 147/1/3 139/1/3 146/1/3
f 148/1/3 141/1/3 140/1/3
f 148/3/3 140/3/3 147/3/3
f 149/1/3 141/1/3 148/1/3
f 150/5/3 142/5/3 141/5/3
f 150/1/3 141/1/3 149/1/3
f 151/1/3 143/1/3 142/1/3
f 151/5/3 144/5/3 143/5/3
f 152/1/3 121/1/3 144/1/3
f 152/5/3 144/5/3 151/5/3
f 153/3/3 146/3/3 145/3/3
f 153/1/3 145/1/3 128/1/3
f 154/1/3 149/1/3 148/1/3
f 154/3/3 146/3/3 153/3/3
f 154/1/3 147/1/3 146/1/3
f 154/1/3 148/1/3 147/1/3
f 155/5/3 150/5/3 149/5/3
f 156/5/3 142/5/3 150/5/3
f 156/5/3 150/5/3 155/5/3
f 157/1/3 152/1/3 151/1/3
f 157/1/3 151/1/3 142/1/3
f 158/1/3 121/1/3 152/1/3
f 158/1/3 152/1/3 157/1/3
f 159/1/3 157/1/3 142/1/3
f 159/5/3 158/5/3 157/5/3
f 160/1/3 121/1/3 158/1/3
f 160/5/3 158/5/3 159/5/3
f 161/1/3 149/1/3 154/1/3
f 161/1/3 154/1/3 153/1/3
f 162/1/3 149/1/3 161/1/3
f 163/1/3 149/1/3 162/1/3
f 164/1/3 149/1/3 163/1/3
f 165/1/3 156/1/3 155/1/3
f 166/1/3 156/1/3 165/1/3
f 167/1/3 159/1/3 142/1/3
f 167/1/3 160/1/3 159/1/3
f 168/1/3 121/1/3 160/1/3
f 168/1/3 160/1/3 167/1/3
f 169/1/3 161/1/3 153/1/3
f 169/5/3 162/5/3 161/5/3
f 170/1/3 163/1/3 162/1/3
f 170/5/3 162/5/3 169/5/3
f 171/3/3 164/3/3 163/3/3
f 171/1/3 163/1/3 170/1/3
f 172/1/3 149/1/3 164/1/3
f 172/3/3 164/3/3 171/3/3
f 173/1/3 167/1/3 142/1/3
f 173/5/3 168/5/3 167/5/3
f 174/1/3 121/1/3 168/1/3
f 174/5/3 168/5/3 173/5/3
f 175/1/3 153/1/3 128/1/3
f 175/1/3 171/1/3 170/1/3
f 175/1/3 172/1/3 171/1/3
f 175/1/3 169/1/3 153/1/3
f 175/1/3 170/1/3 169/1/3
f 176/1/3 172/1/3 175/1/3
f 177/1/3 172/1/3 176/1/3
f 178/1/3 172/1/3 177/1/3
f 179/1/3 174/1/3 173/1/3
f 179/1/3 173/1/3 142/1/3
f 180/1/3 121/1/3 174/1/3
f 180/1/3 174/1/3 179/1/3
f 181/5/3 176/5/3 175/5/3
f 182/1/3 177/1/3 176/1/3
f 182/5/3 176/5/3 181/5/3
f 183/3/3 178/3/3 177/3/3
f 183/1/3 177/1/3 182/1/3
f 184/1/3 172/1/3 178/1/3
f 184/3/3 178/3/3 183/3/3
f 185/1/3 172/1/3 184/1/3
f 186/1/3 172/1/3 185/1/3
f 187/4/3 166/4/3 165/4/3
f 187/1/3 165/1/3 155/1/3
f 188/1/3 156/1/3 166/1/3
f 188/4/3 166/4/3 187/4/3
f 189/1/3 179/1/3 142/1/3
f 189/5/3 180/5/3 179/5/3
f 190/1/3 121/1/3 180/1/3
f 190/5/3 180/5/3 189/5/3
f 191/1/3 183/1/3 182/1/3
f 191/1/3 182/1/3 181/1/3
f 191/3/3 186/3/3 185/3/3
f 191/1/3 185/1/3 184/1/3
f 191/1/3 184/1/3 183/1/3
f 192/1/3 172/1/3 186/1/3
f 192/3/3 186/3/3 191/3/3
f 193/1/3 172/1/3 192/1/3
f 194/1/3 172/1/3 193/1/3
f 195/1/3 149/1/3 172/1/3
f 195/1/3 172/1/3 194/1/3
f 196/1/3 149/1/3 195/1/3
f 197/1/3 190/1/3 189/1/3
f 197/1/3 189/1/3 142/1/3
f 198/1/3 121/1/3 190/1/3
f 198/1/3 190/1/3 197/1/3
f 199/5/3 194/5/3 193/5/3
f 199/1/3 192/1/3 191/1/3
f 199/1/3 193/1/3 192/1/3
f 200/1/3 195/1/3 194/1/3
f 200/5/3 194/5/3 199/5/3
f 201/1/3 195/1/3 200/1/3
f 202/1/3 195/1/3 201/1/3
f 203/1/3 195/1/3 202/1/3
f 204/5/3 196/5/3 195/5/3
f 204/1/3 195/1/3 203/1/3
f 205/5/3 196/5/3 204/5/3
f 206/1/3 149/1/3 196/1/3
f 206/5/3 196/5/3 205/5/3
f 207/1/3 187/1/3 155/1/3
f 207/5/3 155/5/3 149/5/3
f 207/1/3 188/1/3 187/1/3
f 208/1/3 156/1/3 188/1/3
f 208/1/3 188/1/3 207/1/3
f 208/5/3 142/5/3 156/5/3
f 209/1/3 197/1/3 142/1/3
f 209/5/3 198/5/3 197/5/3
f 210/1/3 121/1/3 198/1/3
f 210/5/3 198/5/3 209/5/3
f 211/1/3 191/1/3 181/1/3
f 211/1/3 199/1/3 191/1/3
f 211/1/3 200/1/3 199/1/3
f 211/1/3 201/1/3 200/1/3
f 212/1/3 201/1/3 211/1/3
f 213/5/3 202/5/3 201/5/3
f 213/1/3 201/1/3 212/1/3
f 214/1/3 203/1/3 202/1/3
f 214/5/3 202/5/3 213/5/3
f 215/1/3 203/1/3 214/1/3
f 216/5/3 205/5/3 204/5/3
f 216/1/3 203/1/3 215/1/3
f 216/5/3 204/5/3 203/5/3
f 217/1/3 206/1/3 205/1/3
f 217/5/3 205/5/3 216/5/3
f 218/5/3 207/5/3 149/5/3
f 218/1/3 206/1/3 217/1/3
f 218/1/3 149/1/3 206/1/3
f 218/5/3 208/5/3 207/5/3
f 219/5/3 142/5/3 208/5/3
f 219/5/3 208/5/3 218/5/3
f 220/1/3 209/1/3 142/1/3
f 220/1/3 210/1/3 209/1/3
f 221/1/3 121/1/3 210/1/3
f 221/1/3 210/1/3 220/1/3
f 222/3/3 212/3/3 211/3/3
f 222/1/3 211/1/3 181/1/3
f 223/1/3 215/1/3 214/1/3
f 223/3/3 212/3/3 222/3/3
f 223/1/3 214/1/3 213/1/3
f 223/1/3 213/1/3 212/1/3
f 224/1/3 217/1/3 216/1/3
f 224/1/3 218/1/3 217/1/3
f 224/5/3 142/5/3 219/5/3
f 224/1/3 219/1/3 218/1/3
f 225/1/3 220/1/3 142/1/3
f 225/5/3 142/5/3 224/5/3
f 226/5/3 221/5/3 220/5/3
f 226/1/3 220/1/3 225/1/3
f 227/1/3 121/1/3 221/1/3
f 227/5/3 221/5/3 226/5/3
f 228/1/3 215/1/3 223/1/3
f 228/1/3 223/1/3 222/1/3
f 229/1/3 215/1/3 228/1/3
f 230/1/3 225/1/3 224/1/3
f 230/1/3 224/1/3 216/1/3
f 231/5/3 226/5/3 225/5/3
f 231/1/3 225/1/3 230/1/3
f 232/1/3 227/1/3 226/1/3
f 232/5/3 226/5/3 231/5/3
f 233/3/3 229/3/3 228/3/3
f 233/1/3 228/1/3 222/1/3
f 234/1/3 215/1/3 229/1/3
f 234/3/3 229/3/3 233/3/3
f 235/1/3 215/1/3 234/1/3
f 236/1/3 215/1/3 235/1/3
f 237/1/3 230/1/3 216/1/3
f 237/5/3 231/5/3 230/5/3
f 238/1/3 232/1/3 231/1/3
f 238/5/3 231/5/3 237/5/3
f 239/1/3 233/1/3 222/1/3
f 239/1/3 234/1/3 233/1/3
f 239/1/3 235/1/3 234/1/3
f 240/1/3 235/1/3 239/1/3
f 241/3/3 236/3/3 235/3/3
f 241/1/3 235/1/3 240/1/3
f 242/1/3 215/1/3 236/1/3
f 242/3/3 236/3/3 241/3/3
f 243/3/3 240/3/3 239/3/3
f 243/1/3 239/1/3 222/1/3
f 244/1/3 241/1/3 240/1/3
f 244/3/3 240/3/3 243/3/3
f 244/1/3 242/1/3 241/1/3
f 245/1/3 244/1/3 243/1/3
f 245/1/3 242/1/3 244/1/3
f 246/1/3 242/1/3 245/1/3
f 247/1/3 245/1/3 243/1/3
f 247/3/3 246/3/3 245/3/3
f 248/1/3 242/1/3 246/1/3
f 248/3/3 246/3/3 247/3/3
f 249/1/3 243/1/3 222/1/3
f 249/1/3 222/1/3 181/1/3
f 249/1/3 248/1/3 247/1/3
f 249/1/3 247/1/3 243/1/3
f 250/1/3 248/1/3 249/1/3
f 251/1/3 242/1/3 248/1/3
f 251/1/3 248/1/3 250/1/3
f 251/1/3 215/1/3 242/1/3
f 251/5/3 216/5/3 215/5/3
f 252/1/3 237/1/3 216/1/3
f 252/5/3 216/5/3 251/5/3
f 252/1/3 238/1/3 237/1/3
f 253/1/3 238/1/3 252/1/3
f 254/5/3 250/5/3 249/5/3
f 255/1/3 251/1/3 250/1/3
f 255/5/3 250/5/3 254/5/3
f 255/1/3 252/1/3 251/1/3
f 256/1/3 252/1/3 255/1/3
f 257/1/3 252/1/3 256/1/3
f 258/1/3 252/1/3 257/1/3
f 259/1/3 252/1/3 258/1/3
f 260/5/3 253/5/3 252/5/3
f 260/1/3 252/1/3 259/1/3
f 261/5/3 253/5/3 260/5/3
f 262/1/3 238/1/3 253/1/3
f 262/5/3 253/5/3 261/5/3
f 263/1/3 238/1/3 262/1/3
f 264/1/3 238/1/3 263/1/3
f 265/1/3 232/1/3 238/1/3
f 265/1/3 238/1/3 264/1/3
f 266/1/3 255/1/3 254/1/3
f 266/1/3 256/1/3 255/1/3
f 266/5/3 257/5/3 256/5/3
f 267/1/3 258/1/3 257/1/3
f 267/5/3 257/5/3 266/5/3
f 268/3/3 259/3/3 258/3/3
f 268/1/3 258/1/3 267/1/3
f 269/1/3 261/1/3 260/1/3
f 269/3/3 259/3/3 268/3/3
f 269/1/3 260/1/3 259/1/3
f 270/5/3 263/5/3 262/5/3
f 270/1/3 261/1/3 269/1/3
f 270/5/3 262/5/3 261/5/3
f 271/1/3 264/1/3 263/1/3
f 271/5/3 263/5/3 270/5/3
f 272/5/3 265/5/3 264/5/3
f 272/1/3 264/1/3 271/1/3
f 273/1/3 232/1/3 265/1/3
f 273/5/3 265/5/3 272/5/3
f 274/1/3 227/1/3 232/1/3
f 274/1/3 232/1/3 273/1/3
f 275/1/3 268/1/3 267/1/3
f 275/1/3 270/1/3 269/1/3
f 275/1/3 273/1/3 272/1/3
f 275/1/3 266/1/3 254/1/3
f 275/1/3 269/1/3 268/1/3
f 275/1/3 271/1/3 270/1/3
f 275/1/3 272/1/3 271/1/3
f 275/1/3 267/1/3 266/1/3
f 276/1/3 273/1/3 275/1/3
f 277/1/3 273/1/3 276/1/3
f 278/1/3 273/1/3 277/1/3
f 279/1/3 273/1/3 278/1/3
f 280/5/3 274/5/3 273/5/3
f 280/1/3 273/1/3 279/1/3
f 281/1/3 227/1/3 274/1/3
f 281/5/3 274/5/3 280/5/3
f 282/1/3 121/1/3 227/1/3
f 282/1/3 227/1/3 281/1/3
f 283/1/3 275/1/3 254/1/3
f 283/3/3 276/3/3 275/3/3
f 284/1/3 277/1/3 276/1/3
f 284/3/3 276/3/3 283/3/3
f 285/3/3 278/3/3 277/3/3
f 285/1/3 277/1/3 284/1/3
f 286/1/3 279/1/3 278/1/3
f 286/3/3 278/3/3 285/3/3
f 287/5/3 280/5/3 279/5/3
f 288/5/3 280/5/3 287/5/3
f 289/1/3 281/1/3 280/1/3
f 289/5/3 282/5/3 281/5/3
f 290/1/3 121/1/3 282/1/3
f 290/5/3 282/5/3 289/5/3
f 291/1/3 289/1/3 280/1/3
f 291/1/3 290/1/3 289/1/3
f 292/1/3 121/1/3 290/1/3
f 292/1/3 290/1/3 291/1/3
f 293/1/3 279/1/3 286/1/3
f 293/1/3 285/1/3 284/1/3
f 293/1/3 284/1/3 283/1/3
f 293/1/3 286/1/3 285/1/3
f 294/1/3 279/1/3 293/1/3
f 295/1/3 288/1/3 287/1/3
f 296/1/3 288/1/3 295/1/3
f 297/5/3 292/5/3 291/5/3
f 297/1/3 291/1/3 280/1/3
f 298/1/3 121/1/3 292/1/3
f 298/5/3 292/5/3 297/5/3
f 299/1/3 293/1/3 283/1/3
f 300/1/3 293/1/3 299/1/3
f 301/5/3 294/5/3 293/5/3
f 301/1/3 293/1/3 300/1/3
f 302/1/3 279/1/3 294/1/3
f 302/5/3 294/5/3 301/5/3
f 303/1/3 279/1/3 302/1/3
f 304/1/3 279/1/3 303/1/3
f 305/1/3 297/1/3 280/1/3
f 305/1/3 298/1/3 297/1/3
f 306/1/3 121/1/3 298/1/3
f 306/1/3 298/1/3 305/1/3
f 307/3/3 300/3/3 299/3/3
f 307/1/3 299/1/3 283/1/3
f 308/1/3 301/1/3 300/1/3
f 308/3/3 300/3/3 307/3/3
f 308/1/3 302/1/3 301/1/3
f 308/1/3 303/1/3 302/1/3
f 309/3/3 304/3/3 303/3/3
f 309/1/3 303/1/3 308/1/3
f 310/1/3 279/1/3 304/1/3
f 310/3/3 304/3/3 309/3/3
f 311/1/3 305/1/3 280/1/3
f 311/5/3 306/5/3 305/5/3
f 312/1/3 121/1/3 306/1/3
f 312/5/3 306/5/3 311/5/3
f 313/4/3 296/4/3 295/4/3
f 313/1/3 295/1/3 287/1/3
f 314/1/3 288/1/3 296/1/3
f 314/4/3 296/4/3 313/4/3
f 315/1/3 311/1/3 280/1/3
f 315/1/3 312/1/3 311/1/3
f 316/1/3 121/1/3 312/1/3
f 316/1/3 312/1/3 315/1/3
f 317/1/3 309/1/3 308/1/3
f 317/1/3 308/1/3 307/1/3
f 317/1/3 310/1/3 309/1/3
f 318/1/3 310/1/3 317/1/3
f 319/1/3 315/1/3 280/1/3
f 319/5/3 316/5/3 315/5/3
f 320/1/3 121/1/3 316/1/3
f 320/5/3 316/5/3 319/5/3
f 321/1/3 307/1/3 283/1/3
f 321/1/3 283/1/3 254/1/3
f 321/1/3 317/1/3 307/1/3
f 322/1/3 317/1/3 321/1/3
f 323/3/3 318/3/3 317/3/3
f 323/1/3 317/1/3 322/1/3
f 324/1/3 310/1/3 318/1/3
f 324/3/3 318/3/3 323/3/3
f 325/1/3 313/1/3 287/1/3
f 325/5/3 287/5/3 279/5/3
f 325/1/3 314/1/3 313/1/3
f 326/5/3 280/5/3 288/5/3
f 326/1/3 314/1/3 325/1/3
f 326/1/3 288/1/3 314/1/3
f 327/1/3 319/1/3 280/1/3
f 327/1/3 320/1/3 319/1/3
f 328/1/3 121/1/3 320/1/3
f 328/1/3 320/1/3 327/1/3
f 329/5/3 322/5/3 321/5/3
f 330/1/3 323/1/3 322/1/3
f 330/5/3 322/5/3 329/5/3
f 330/1/3 324/1/3 323/1/3
f 331/5/3 325/5/3 279/5/3
f 331/1/3 324/1/3 330/1/3
f 331/1/3 310/1/3 324/1/3
f 331/5/3 326/5/3 325/5/3
f 331/1/3 279/1/3 310/1/3
f 332/5/3 280/5/3 326/5/3
f 332/5/3 326/5/3 331/5/3
f 333/1/3 327/1/3 280/1/3
f 333/5/3 328/5/3 327/5/3
f 334/1/3 121/1/3 328/1/3
f 334/5/3 328/5/3 333/5/3
f 335/1/3 330/1/3 329/1/3
f 335/1/3 331/1/3 330/1/3
f 335/5/3 280/5/3 332/5/3
f 335/1/3 332/1/3 331/1/3
f 336/1/3 334/1/3 333/1/3
f 336/5/3 280/5/3 335/5/3
f 336/1/3 333/1/3 280/1/3
f 337/1/3 334/1/3 336/1/3
f 338/1/3 335/1/3 329/1/3
f 338/1/3 336/1/3 335/1/3
f 339/1/3 336/1/3 338/1/3
f 340/1/3 336/1/3 339/1/3
f 341/1/3 336/1/3 340/1/3
f 342/1/3 336/1/3 341/1/3
f 343/5/3 337/5/3 336/5/3
f 343/1/3 336/1/3 342/1/3
f 344/1/3 334/1/3 337/1/3
f 344/5/3 337/5/3 343/5/3
f 345/1/3 338/1/3 329/1/3
f 345/3/3 339/3/3 338/3/3
f 346/1/3 340/1/3 339/1/3
f 346/3/3 339/3/3 345/3/3
f 347/1/3 340/1/3 346/1/3
f 348/1/3 340/1/3 347/1/3
f 349/5/3 341/5/3 340/5/3
f 349/1/3 340/1/3 348/1/3
f 350/1/3 342/1/3 341/1/3
f 350/5/3 341/5/3 349/5/3
f 351/1/3 342/1/3 350/1/3
f 352/1/3 342/1/3 351/1/3
f 353/5/3 343/5/3 342/5/3
f 353/1/3 342/1/3 352/1/3
f 354/1/3 344/1/3 343/1/3
f 354/5/3 343/5/3 353/5/3
f 355/3/3 348/3/3 347/3/3
f 355/1/3 346/1/3 345/1/3
f 355/1/3 347/1/3 346/1/3
f 356/1/3 349/1/3 348/1/3
f 356/3/3 348/3/3 355/3/3
f 356/1/3 351/1/3 350/1/3
f 356/1/3 350/1/3 349/1/3
f 357/3/3 352/3/3 351/3/3
f 357/1/3 351/1/3 356/1/3
f 358/1/3 353/1/3 352/1/3
f 358/3/3 352/3/3 357/3/3
f 358/1/3 354/1/3 353/1/3
f 359/1/3 356/1/3 355/1/3
f 359/1/3 355/1/3 345/1/3
f 359/1/3 358/1/3 357/1/3
f 359/1/3 357/1/3 356/1/3
f 359/1/3 345/1/3 329/1/3
f 360/1/3 121/1/3 334/1/3
f 360/1/3 358/1/3 359/1/3
f 360/1/3 354/1/3 358/1/3
f 360/1/3 334/1/3 344/1/3
f 360/1/3 344/1/3 354/1/3
f 361/1/4 362/1/4 363/1/4
f 363/1/4 362/1/4 364/1/4
f 375/1/5 366/1/5 365/1/5
f 375/3/5 367/3/5 366/3/5
f 376/1/5 368/1/5 367/1/5
f 376/3/5 367/3/5 375/3/5
f 377/5/5 369/5/5 368/5/5
f 377/1/5 368/1/5 376/1/5
f 378/1/5 370/1/5 369/1/5
f 378/5/5 369/5/5 377/5/5
f 379/5/5 371/5/5 370/5/5
f 379/1/5 370/1/5 378/1/5
f 380/1/5 372/1/5 371/1/5
f 380/5/5 371/5/5 379/5/5
f 381/5/5 373/5/5 372/5/5
f 381/1/5 372/1/5 380/1/5
f 382/1/5 374/1/5 373/1/5
f 382/5/5 373/5/5 381/5/5
f 383/1/5 381/1/5 380/1/5
f 383/1/5 380/1/5 379/1/5
f 383/1/5 382/1/5 381/1/5
f 383/1/5 379/1/5 378/1/5
f 383/1/5 378/1/5 377/1/5
f 383/1/5 377/1/5 376/1/5
f 383/1/5 376/1/5 375/1/5
f 383/1/5 375/1/5 365/1/5
f 384/1/5 374/1/5 382/1/5
f 384/1/5 382/1/5 383/1/5
f 385/1/6 386/1/6 387/1/6
f 387/1/6 386/1/6 388/1/6
