# MagicaVoxel @ Ephtracy

# group
o 

# material
mtllib Knife.mtl
usemtl palette

# normals
vn -1 0 0
vn 1 0 0
vn 0 0 1
vn 0 0 -1
vn 0 -1 0
vn 0 1 0

# texcoords
vt 0.970703 0.5
vt 0.982422 0.5
vt 0.990234 0.5

# verts
v 7.45058e-09 0 0.1
v 7.45058e-09 0 -0.2
v 7.45058e-09 0.1 0
v 7.45058e-09 0.1 -0.1
v 7.45058e-09 0.7 0.3
v 7.45058e-09 0.7 0.1
v 7.45058e-09 0.7 -0.2
v 7.45058e-09 0.7 -0.4
v 7.45058e-09 0.8 0.4
v 7.45058e-09 0.8 0.3
v 7.45058e-09 0.8 0
v 7.45058e-09 0.8 -0.1
v 7.45058e-09 0.8 -0.4
v 7.45058e-09 0.8 -0.5
v 7.45058e-09 0.9 1
v 7.45058e-09 0.9 0.4
v 7.45058e-09 0.9 0.3
v 7.45058e-09 0.9 -0.4
v 7.45058e-09 0.9 -0.5
v 7.45058e-09 0.9 -1.1
v 7.45058e-09 1.1 1
v 7.45058e-09 1.1 0.8
v 7.45058e-09 1.1 0.4
v 7.45058e-09 1.1 0.3
v 7.45058e-09 1.1 -0.4
v 7.45058e-09 1.1 -0.5
v 7.45058e-09 1.1 -0.9
v 7.45058e-09 1.1 -1.1
v 7.45058e-09 1.2 0.8
v 7.45058e-09 1.2 0.4
v 7.45058e-09 1.2 -0.5
v 7.45058e-09 1.2 -0.9
v 7.45058e-09 2.8 0.4
v 7.45058e-09 2.8 0.3
v 7.45058e-09 2.8 0.2
v 7.45058e-09 2.8 -0.3
v 7.45058e-09 2.8 -0.4
v 7.45058e-09 2.8 -0.5
v 7.45058e-09 3.4 0.3
v 7.45058e-09 3.4 0.2
v 7.45058e-09 3.4 0.1
v 7.45058e-09 3.4 -0.2
v 7.45058e-09 3.4 -0.3
v 7.45058e-09 3.4 -0.4
v 7.45058e-09 3.8 0.2
v 7.45058e-09 3.8 0.1
v 7.45058e-09 3.8 0
v 7.45058e-09 3.8 -0.1
v 7.45058e-09 3.8 -0.2
v 7.45058e-09 3.8 -0.3
v 7.45058e-09 3.9 0
v 7.45058e-09 3.9 -0.1
v 7.45058e-09 4 0.1
v 7.45058e-09 4 -0.2
v 0.1 0 0.1
v 0.1 0 -0.2
v 0.1 0.1 0
v 0.1 0.1 -0.1
v 0.1 0.7 0.3
v 0.1 0.7 0.1
v 0.1 0.7 -0.2
v 0.1 0.7 -0.4
v 0.1 0.8 0.4
v 0.1 0.8 0.3
v 0.1 0.8 0
v 0.1 0.8 -0.1
v 0.1 0.8 -0.4
v 0.1 0.8 -0.5
v 0.1 0.9 1
v 0.1 0.9 0.4
v 0.1 0.9 0.3
v 0.1 0.9 -0.4
v 0.1 0.9 -0.5
v 0.1 0.9 -1.1
v 0.1 1.1 1
v 0.1 1.1 0.8
v 0.1 1.1 0.4
v 0.1 1.1 0.3
v 0.1 1.1 -0.4
v 0.1 1.1 -0.5
v 0.1 1.1 -0.9
v 0.1 1.1 -1.1
v 0.1 1.2 0.8
v 0.1 1.2 0.4
v 0.1 1.2 -0.5
v 0.1 1.2 -0.9
v 0.1 2.8 0.4
v 0.1 2.8 0.3
v 0.1 2.8 0.2
v 0.1 2.8 -0.3
v 0.1 2.8 -0.4
v 0.1 2.8 -0.5
v 0.1 3.4 0.3
v 0.1 3.4 0.2
v 0.1 3.4 0.1
v 0.1 3.4 -0.2
v 0.1 3.4 -0.3
v 0.1 3.4 -0.4
v 0.1 3.8 0.2
v 0.1 3.8 0.1
v 0.1 3.8 0
v 0.1 3.8 -0.1
v 0.1 3.8 -0.2
v 0.1 3.8 -0.3
v 0.1 3.9 0
v 0.1 3.9 -0.1
v 0.1 4 0.1
v 0.1 4 -0.2
v 7.45058e-09 0.9 1
v 7.45058e-09 1.1 1
v 0.1 0.9 1
v 0.1 1.1 1
v 7.45058e-09 1.1 0.8
v 7.45058e-09 1.2 0.8
v 0.1 1.1 0.8
v 0.1 1.2 0.8
v 7.45058e-09 0.8 0.4
v 7.45058e-09 0.9 0.4
v 7.45058e-09 1.2 0.4
v 7.45058e-09 2.8 0.4
v 0.1 0.8 0.4
v 0.1 0.9 0.4
v 0.1 1.2 0.4
v 0.1 2.8 0.4
v 7.45058e-09 0.7 0.3
v 7.45058e-09 0.8 0.3
v 7.45058e-09 2.8 0.3
v 7.45058e-09 3.4 0.3
v 0.1 0.7 0.3
v 0.1 0.8 0.3
v 0.1 2.8 0.3
v 0.1 3.4 0.3
v 7.45058e-09 3.4 0.2
v 7.45058e-09 3.8 0.2
v 0.1 3.4 0.2
v 0.1 3.8 0.2
v 7.45058e-09 0 0.1
v 7.45058e-09 0.7 0.1
v 7.45058e-09 3.8 0.1
v 7.45058e-09 4 0.1
v 0.1 0 0.1
v 0.1 0.7 0.1
v 0.1 3.8 0.1
v 0.1 4 0.1
v 7.45058e-09 0 -0.2
v 7.45058e-09 0.7 -0.2
v 7.45058e-09 3.8 -0.2
v 7.45058e-09 4 -0.2
v 0.1 0 -0.2
v 0.1 0.7 -0.2
v 0.1 3.8 -0.2
v 0.1 4 -0.2
v 7.45058e-09 3.4 -0.3
v 7.45058e-09 3.8 -0.3
v 0.1 3.4 -0.3
v 0.1 3.8 -0.3
v 7.45058e-09 0.7 -0.4
v 7.45058e-09 0.8 -0.4
v 7.45058e-09 2.8 -0.4
v 7.45058e-09 3.4 -0.4
v 0.1 0.7 -0.4
v 0.1 0.8 -0.4
v 0.1 2.8 -0.4
v 0.1 3.4 -0.4
v 7.45058e-09 0.8 -0.5
v 7.45058e-09 0.9 -0.5
v 7.45058e-09 1.2 -0.5
v 7.45058e-09 2.8 -0.5
v 0.1 0.8 -0.5
v 0.1 0.9 -0.5
v 0.1 1.2 -0.5
v 0.1 2.8 -0.5
v 7.45058e-09 1.1 -0.9
v 7.45058e-09 1.2 -0.9
v 0.1 1.1 -0.9
v 0.1 1.2 -0.9
v 7.45058e-09 0.9 -1.1
v 7.45058e-09 1.1 -1.1
v 0.1 0.9 -1.1
v 0.1 1.1 -1.1
v 7.45058e-09 0 0.1
v 0.1 0 0.1
v 7.45058e-09 0 -0.2
v 0.1 0 -0.2
v 7.45058e-09 0.7 0.3
v 0.1 0.7 0.3
v 7.45058e-09 0.7 0.1
v 0.1 0.7 0.1
v 7.45058e-09 0.7 -0.2
v 0.1 0.7 -0.2
v 7.45058e-09 0.7 -0.4
v 0.1 0.7 -0.4
v 7.45058e-09 0.8 0.4
v 0.1 0.8 0.4
v 7.45058e-09 0.8 0.3
v 0.1 0.8 0.3
v 7.45058e-09 0.8 -0.4
v 0.1 0.8 -0.4
v 7.45058e-09 0.8 -0.5
v 0.1 0.8 -0.5
v 7.45058e-09 0.9 1
v 0.1 0.9 1
v 7.45058e-09 0.9 0.4
v 0.1 0.9 0.4
v 7.45058e-09 0.9 -0.5
v 0.1 0.9 -0.5
v 7.45058e-09 0.9 -1.1
v 0.1 0.9 -1.1
v 7.45058e-09 1.1 1
v 0.1 1.1 1
v 7.45058e-09 1.1 0.8
v 0.1 1.1 0.8
v 7.45058e-09 1.1 -0.9
v 0.1 1.1 -0.9
v 7.45058e-09 1.1 -1.1
v 0.1 1.1 -1.1
v 7.45058e-09 1.2 0.8
v 0.1 1.2 0.8
v 7.45058e-09 1.2 0.4
v 0.1 1.2 0.4
v 7.45058e-09 1.2 -0.5
v 0.1 1.2 -0.5
v 7.45058e-09 1.2 -0.9
v 0.1 1.2 -0.9
v 7.45058e-09 2.8 0.4
v 0.1 2.8 0.4
v 7.45058e-09 2.8 0.3
v 0.1 2.8 0.3
v 7.45058e-09 2.8 -0.4
v 0.1 2.8 -0.4
v 7.45058e-09 2.8 -0.5
v 0.1 2.8 -0.5
v 7.45058e-09 3.4 0.3
v 0.1 3.4 0.3
v 7.45058e-09 3.4 0.2
v 0.1 3.4 0.2
v 7.45058e-09 3.4 -0.3
v 0.1 3.4 -0.3
v 7.45058e-09 3.4 -0.4
v 0.1 3.4 -0.4
v 7.45058e-09 3.8 0.2
v 0.1 3.8 0.2
v 7.45058e-09 3.8 0.1
v 0.1 3.8 0.1
v 7.45058e-09 3.8 -0.2
v 0.1 3.8 -0.2
v 7.45058e-09 3.8 -0.3
v 0.1 3.8 -0.3
v 7.45058e-09 4 0.1
v 0.1 4 0.1
v 7.45058e-09 4 -0.2
v 0.1 4 -0.2

# faces
f 3/1/1 2/1/1 1/1/1
f 4/1/1 2/1/1 3/1/1
f 6/1/1 3/1/1 1/1/1
f 7/1/1 2/1/1 4/1/1
f 10/1/1 6/1/1 5/1/1
f 11/2/1 4/2/1 3/2/1
f 11/1/1 3/1/1 6/1/1
f 11/1/1 6/1/1 10/1/1
f 12/1/1 8/1/1 7/1/1
f 12/2/1 4/2/1 11/2/1
f 12/1/1 7/1/1 4/1/1
f 13/1/1 8/1/1 12/1/1
f 16/1/1 10/1/1 9/1/1
f 17/2/1 11/2/1 10/2/1
f 17/2/1 12/2/1 11/2/1
f 17/1/1 10/1/1 16/1/1
f 17/2/1 13/2/1 12/2/1
f 18/1/1 14/1/1 13/1/1
f 18/2/1 13/2/1 17/2/1
f 19/1/1 14/1/1 18/1/1
f 21/3/1 16/3/1 15/3/1
f 21/3/1 20/3/1 19/3/1
f 21/3/1 19/3/1 18/3/1
f 21/3/1 18/3/1 17/3/1
f 21/3/1 17/3/1 16/3/1
f 22/3/1 20/3/1 21/3/1
f 23/3/1 20/3/1 22/3/1
f 24/3/1 20/3/1 23/3/1
f 25/3/1 20/3/1 24/3/1
f 26/3/1 20/3/1 25/3/1
f 27/3/1 20/3/1 26/3/1
f 28/3/1 20/3/1 27/3/1
f 29/3/1 23/3/1 22/3/1
f 30/1/1 24/1/1 23/1/1
f 30/3/1 23/3/1 29/3/1
f 31/3/1 27/3/1 26/3/1
f 31/1/1 26/1/1 25/1/1
f 32/3/1 27/3/1 31/3/1
f 33/1/1 24/1/1 30/1/1
f 34/2/1 25/2/1 24/2/1
f 34/1/1 24/1/1 33/1/1
f 35/2/1 25/2/1 34/2/1
f 36/2/1 25/2/1 35/2/1
f 37/1/1 31/1/1 25/1/1
f 37/2/1 25/2/1 36/2/1
f 38/1/1 31/1/1 37/1/1
f 39/1/1 35/1/1 34/1/1
f 40/2/1 36/2/1 35/2/1
f 40/1/1 35/1/1 39/1/1
f 41/2/1 36/2/1 40/2/1
f 42/2/1 36/2/1 41/2/1
f 43/1/1 37/1/1 36/1/1
f 43/2/1 36/2/1 42/2/1
f 44/1/1 37/1/1 43/1/1
f 45/1/1 41/1/1 40/1/1
f 46/2/1 42/2/1 41/2/1
f 46/1/1 41/1/1 45/1/1
f 47/2/1 42/2/1 46/2/1
f 48/2/1 42/2/1 47/2/1
f 49/1/1 43/1/1 42/1/1
f 49/2/1 42/2/1 48/2/1
f 50/1/1 43/1/1 49/1/1
f 51/2/1 48/2/1 47/2/1
f 51/1/1 47/1/1 46/1/1
f 52/1/1 49/1/1 48/1/1
f 52/2/1 48/2/1 51/2/1
f 53/1/1 51/1/1 46/1/1
f 53/1/1 52/1/1 51/1/1
f 54/1/1 49/1/1 52/1/1
f 54/1/1 52/1/1 53/1/1
f 55/1/2 56/1/2 57/1/2
f 57/1/2 56/1/2 58/1/2
f 55/1/2 57/1/2 60/1/2
f 58/1/2 56/1/2 61/1/2
f 59/1/2 60/1/2 64/1/2
f 57/2/2 58/2/2 65/2/2
f 60/1/2 57/1/2 65/1/2
f 64/1/2 60/1/2 65/1/2
f 61/1/2 62/1/2 66/1/2
f 65/2/2 58/2/2 66/2/2
f 58/1/2 61/1/2 66/1/2
f 66/1/2 62/1/2 67/1/2
f 63/1/2 64/1/2 70/1/2
f 64/2/2 65/2/2 71/2/2
f 65/2/2 66/2/2 71/2/2
f 70/1/2 64/1/2 71/1/2
f 66/2/2 67/2/2 71/2/2
f 67/1/2 68/1/2 72/1/2
f 71/2/2 67/2/2 72/2/2
f 72/1/2 68/1/2 73/1/2
f 69/3/2 70/3/2 75/3/2
f 73/3/2 74/3/2 75/3/2
f 72/3/2 73/3/2 75/3/2
f 71/3/2 72/3/2 75/3/2
f 70/3/2 71/3/2 75/3/2
f 75/3/2 74/3/2 76/3/2
f 76/3/2 74/3/2 77/3/2
f 77/3/2 74/3/2 78/3/2
f 78/3/2 74/3/2 79/3/2
f 79/3/2 74/3/2 80/3/2
f 80/3/2 74/3/2 81/3/2
f 81/3/2 74/3/2 82/3/2
f 76/3/2 77/3/2 83/3/2
f 77/1/2 78/1/2 84/1/2
f 83/3/2 77/3/2 84/3/2
f 80/3/2 81/3/2 85/3/2
f 79/1/2 80/1/2 85/1/2
f 85/3/2 81/3/2 86/3/2
f 84/1/2 78/1/2 87/1/2
f 78/2/2 79/2/2 88/2/2
f 87/1/2 78/1/2 88/1/2
f 88/2/2 79/2/2 89/2/2
f 89/2/2 79/2/2 90/2/2
f 79/1/2 85/1/2 91/1/2
f 90/2/2 79/2/2 91/2/2
f 91/1/2 85/1/2 92/1/2
f 88/1/2 89/1/2 93/1/2
f 89/2/2 90/2/2 94/2/2
f 93/1/2 89/1/2 94/1/2
f 94/2/2 90/2/2 95/2/2
f 95/2/2 90/2/2 96/2/2
f 90/1/2 91/1/2 97/1/2
f 96/2/2 90/2/2 97/2/2
f 97/1/2 91/1/2 98/1/2
f 94/1/2 95/1/2 99/1/2
f 95/2/2 96/2/2 100/2/2
f 99/1/2 95/1/2 100/1/2
f 100/2/2 96/2/2 101/2/2
f 101/2/2 96/2/2 102/2/2
f 96/1/2 97/1/2 103/1/2
f 102/2/2 96/2/2 103/2/2
f 103/1/2 97/1/2 104/1/2
f 101/2/2 102/2/2 105/2/2
f 100/1/2 101/1/2 105/1/2
f 102/1/2 103/1/2 106/1/2
f 105/2/2 102/2/2 106/2/2
f 100/1/2 105/1/2 107/1/2
f 105/1/2 106/1/2 107/1/2
f 106/1/2 103/1/2 108/1/2
f 107/1/2 106/1/2 108/1/2
f 111/3/3 110/3/3 109/3/3
f 112/3/3 110/3/3 111/3/3
f 115/3/3 114/3/3 113/3/3
f 116/3/3 114/3/3 115/3/3
f 121/1/3 118/1/3 117/1/3
f 122/1/3 118/1/3 121/1/3
f 123/1/3 120/1/3 119/1/3
f 124/1/3 120/1/3 123/1/3
f 129/1/3 126/1/3 125/1/3
f 130/1/3 126/1/3 129/1/3
f 131/1/3 128/1/3 127/1/3
f 132/1/3 128/1/3 131/1/3
f 135/1/3 134/1/3 133/1/3
f 136/1/3 134/1/3 135/1/3
f 141/1/3 138/1/3 137/1/3
f 142/1/3 138/1/3 141/1/3
f 143/1/3 140/1/3 139/1/3
f 144/1/3 140/1/3 143/1/3
f 145/1/4 146/1/4 149/1/4
f 149/1/4 146/1/4 150/1/4
f 147/1/4 148/1/4 151/1/4
f 151/1/4 148/1/4 152/1/4
f 153/1/4 154/1/4 155/1/4
f 155/1/4 154/1/4 156/1/4
f 157/1/4 158/1/4 161/1/4
f 161/1/4 158/1/4 162/1/4
f 159/1/4 160/1/4 163/1/4
f 163/1/4 160/1/4 164/1/4
f 165/1/4 166/1/4 169/1/4
f 169/1/4 166/1/4 170/1/4
f 167/1/4 168/1/4 171/1/4
f 171/1/4 168/1/4 172/1/4
f 173/3/4 174/3/4 175/3/4
f 175/3/4 174/3/4 176/3/4
f 177/3/4 178/3/4 179/3/4
f 179/3/4 178/3/4 180/3/4
f 183/1/5 182/1/5 181/1/5
f 184/1/5 182/1/5 183/1/5
f 187/1/5 186/1/5 185/1/5
f 188/1/5 186/1/5 187/1/5
f 191/1/5 190/1/5 189/1/5
f 192/1/5 190/1/5 191/1/5
f 195/1/5 194/1/5 193/1/5
f 196/1/5 194/1/5 195/1/5
f 199/1/5 198/1/5 197/1/5
f 200/1/5 198/1/5 199/1/5
f 203/3/5 202/3/5 201/3/5
f 204/3/5 202/3/5 203/3/5
f 207/3/5 206/3/5 205/3/5
f 208/3/5 206/3/5 207/3/5
f 209/3/6 210/3/6 211/3/6
f 211/3/6 210/3/6 212/3/6
f 213/3/6 214/3/6 215/3/6
f 215/3/6 214/3/6 216/3/6
f 217/3/6 218/3/6 219/3/6
f 219/3/6 218/3/6 220/3/6
f 221/3/6 222/3/6 223/3/6
f 223/3/6 222/3/6 224/3/6
f 225/1/6 226/1/6 227/1/6
f 227/1/6 226/1/6 228/1/6
f 229/1/6 230/1/6 231/1/6
f 231/1/6 230/1/6 232/1/6
f 233/1/6 234/1/6 235/1/6
f 235/1/6 234/1/6 236/1/6
f 237/1/6 238/1/6 239/1/6
f 239/1/6 238/1/6 240/1/6
f 241/1/6 242/1/6 243/1/6
f 243/1/6 242/1/6 244/1/6
f 245/1/6 246/1/6 247/1/6
f 247/1/6 246/1/6 248/1/6
f 249/1/6 250/1/6 251/1/6
f 251/1/6 250/1/6 252/1/6
